<?xml version="1.0" standalone="no"?>
<!DOCTYPE svg PUBLIC "-//W3C//DTD SVG 20010904//EN"
 "http://www.w3.org/TR/2001/REC-SVG-20010904/DTD/svg10.dtd">
<svg version="1.0" xmlns="http://www.w3.org/2000/svg"
 width="250.000000pt" height="250.000000pt" viewBox="0 0 250.000000 250.000000"
 preserveAspectRatio="xMidYMid meet">

<g transform="translate(0.000000,250.000000) scale(0.100000,-0.100000)"
fill="#000000" stroke="none">
<path d="M1280 1701 c0 -5 7 -28 15 -51 11 -30 15 -85 15 -191 l0 -149 75 0
75 0 0 150 c0 165 0 166 60 135 49 -25 73 -86 78 -192 l4 -93 81 0 80 0 -6 99
c-10 196 -75 271 -250 291 -103 12 -227 13 -227 1z"/>
<path d="M875 1684 c-106 -55 -155 -177 -125 -317 l11 -57 94 0 93 0 -16 43
c-33 92 -15 188 41 215 33 16 56 10 98 -25 l30 -26 27 20 c14 10 27 24 30 31
5 16 -73 97 -112 116 -43 20 -132 20 -171 0z"/>
<path d="M965 1181 c-3 -5 -2 -12 3 -15 5 -3 9 1 9 9 0 17 -3 19 -12 6z"/>
<path d="M1765 1169 c-4 -6 -5 -12 -2 -15 2 -3 7 2 10 11 7 17 1 20 -8 4z"/>
<path d="M694 1162 c-12 -4 -34 -23 -49 -42 l-27 -35 31 33 c17 17 37 32 45
32 8 0 18 5 21 10 3 6 5 10 3 9 -2 -1 -13 -4 -24 -7z"/>
<path d="M910 1072 c0 -5 16 -35 35 -67 19 -31 39 -80 46 -109 30 -136 -63
-226 -153 -147 l-33 29 -28 -24 c-35 -30 -30 -50 25 -99 96 -87 207 -86 295 2
80 79 93 211 36 350 l-29 68 -97 3 c-54 1 -97 -1 -97 -6z"/>
<path d="M1317 1073 c-4 -3 -7 -114 -7 -245 l0 -238 75 0 75 0 2 223 3 222 30
2 c56 5 135 24 135 34 0 10 -303 13 -313 2z"/>
<path d="M589 1053 c-13 -16 -12 -17 4 -4 9 7 17 15 17 17 0 8 -8 3 -21 -13z"/>
</g>
</svg>
